<svg xmlns="http://www.w3.org/2000/svg"><symbol id="artboard-3" viewBox="0 0 256 256"><path fill="none" stroke="#000" stroke-linecap="round" stroke-miterlimit="10" stroke-width="6" d="M2.5 111.9L127.2 2m126.3 115.3L127.2 2M24.9 92.1l.8 160.9M227.4 94.3L228 253m-202.3 0h201.9M96.3 157.6h64.9a.9.9 0 0 1 .9.9v91.7H95.4v-91.7a.9.9 0 0 1 .9-.9z"/></symbol><symbol id="artboard-6" viewBox="0 0 256 256"><path fill="none" stroke="#000" stroke-linecap="round" stroke-miterlimit="10" stroke-width="6" d="M4 4l248 247M4 253L254 3"/></symbol><symbol id="artboard-5" viewBox="0 0 256 256"><path fill="none" stroke="#000" stroke-linecap="round" stroke-miterlimit="10" stroke-width="6" d="M2.9 59.3h251m-251 71.3h251m-251 66.7h251"/></symbol><symbol id="artboard-2" viewBox="0 0 256 256"><path fill="none" stroke="#000" stroke-linecap="round" stroke-miterlimit="10" stroke-width="6" d="M2.6 2.3l34 8.5M123 206.4L36.6 10.8m18.3 31.1l197.2 1.7m1.5 114.2l-1.5-114.2m-148 114.8l149.5-.6M123 206.4l108-.6m-48.4-104.6l70.3-.4"/><ellipse cx="231" cy="228.3" fill="none" stroke="#000" stroke-linecap="round" stroke-miterlimit="10" stroke-width="6" rx="21.8" ry="22.4"/><ellipse cx="142.7" cy="230.9" fill="none" stroke="#000" stroke-linecap="round" stroke-miterlimit="10" stroke-width="6" rx="21.8" ry="22.4"/></symbol><symbol id="artboard-1" viewBox="0 0 256.3 256"><ellipse cx="96" cy="96.4" fill="none" stroke="#000" stroke-miterlimit="10" stroke-width="6" rx="93" ry="93.8"/><path fill="none" stroke="#000" stroke-linecap="round" stroke-miterlimit="10" stroke-width="6" d="M162.8 161.5l91.2 92.1"/></symbol><symbol id="artboard-4" viewBox="0 0 256 256"><path fill="none" stroke="#000" stroke-miterlimit="10" stroke-width="6" d="M86.2 142.5a7.6 7.6 0 0 0 2.9-9.8C76.8 106.8 54.9.6 131.5 2.2c91.8 1.9 44.1 127.7 35.5 138.2-3.7 4.5 29.6 28 51.4 41.6 13.9 8.6 24.9 21.3 30.5 36.6 2.9 7.8 4.4 16.1 2.4 23a13.5 13.5 0 0 1-13 9.2H19.9a17.9 17.9 0 0 1-17.5-13.7c-3.2-13-.9-34.4 29.6-59.9z"/></symbol></svg>