<svg xmlns="http://www.w3.org/2000/svg"><symbol id="iconmonstr-shopping-cart-3" viewBox="0 0 24 24"><path d="M10 19.5a1.5 1.5 0 1 1-3 0 1.5 1.5 0 0 1 3 0zm3.5-1.5a1.5 1.5 0 1 0 0 3 1.5 1.5 0 0 0 0-3zm1.336-5l1.977-7H0l2.938 7zm4.969-10l-3.432 12H3.776l.839 2h13.239l3.474-12h1.929L24 3z"/></symbol><symbol id="iconmonstr-arrow-67" viewBox="0 0 24 24"><path d="M12 0C5.373 0 0 5.373 0 12s5.373 12 12 12 12-5.373 12-12S18.627 0 12 0zm-1.568 18.005L9.018 16.59 13.592 12 9.018 7.421l1.414-1.416L16.42 12l-5.988 6.005z"/></symbol><symbol id="iconmonstr-minus-6" viewBox="0 0 24 24"><path d="M12 2c5.514 0 10 4.486 10 10s-4.486 10-10 10S2 17.514 2 12 6.486 2 12 2zm0-2C5.373 0 0 5.373 0 12s5.373 12 12 12 12-5.373 12-12S18.627 0 12 0zm6 13H6v-2h12v2z"/></symbol><symbol id="iconmonstr-menu-1" viewBox="0 0 24 24"><path d="M24 6H0V2h24zm0 4H0v4h24zm0 8H0v4h24z"/></symbol><symbol id="iconmonstr-x-mark-1" viewBox="0 0 24 24"><path d="M24 20.188l-8.315-8.209 8.2-8.282L20.188 0l-8.212 8.318L3.666.115 0 3.781l8.321 8.24-8.206 8.313L3.781 24l8.237-8.318 8.285 8.203z"/></symbol><symbol id="iconmonstr-magnifier-1" viewBox="0 0 24 24"><path d="M23.822 20.88l-6.353-6.354a9.407 9.407 0 0 0 1.467-5.059C18.937 4.248 14.689 0 9.468 0S0 4.248 0 9.468c0 5.221 4.247 9.469 9.468 9.469a9.41 9.41 0 0 0 4.839-1.333L20.703 24l3.119-3.12zM3.528 9.468A5.947 5.947 0 0 1 9.467 3.53a5.946 5.946 0 0 1 5.94 5.938 5.946 5.946 0 0 1-5.94 5.939 5.946 5.946 0 0 1-5.939-5.939z"/></symbol><symbol id="iconmonstr-arrow-68" viewBox="0 0 24 24"><path d="M0 12c0 6.627 5.373 12 12 12s12-5.373 12-12S18.627 0 12 0 0 5.373 0 12zm7.58 0l5.988-5.995 1.414 1.416L10.408 12l4.574 4.59-1.414 1.416L7.58 12z"/></symbol><symbol id="iconmonstr-user-1-1-" viewBox="0 0 24 24"><path d="M20.822 18.096c-3.439-.794-6.64-1.49-5.09-4.418C20.452 4.766 16.983 0 12 0 6.918 0 3.536 4.949 8.268 13.678c1.597 2.945-1.725 3.641-5.09 4.418C.105 18.806-.01 20.332 0 23l.004 1h23.99l.004-.969c.012-2.688-.092-4.222-3.176-4.935z"/></symbol><symbol id="iconmonstr-home-6" viewBox="0 0 24 24"><path d="M21 13v10h-6v-6H9v6H3V13H0L12 1l12 12h-3zm-1-5.907V2h-3v2.093l3 3z"/></symbol><symbol id="iconmonstr-plus-6" viewBox="0 0 24 24"><path d="M12 2c5.514 0 10 4.486 10 10s-4.486 10-10 10S2 17.514 2 12 6.486 2 12 2zm0-2C5.373 0 0 5.373 0 12s5.373 12 12 12 12-5.373 12-12S18.627 0 12 0zm6 13h-5v5h-2v-5H6v-2h5V6h2v5h5v2z"/></symbol></svg>