<svg xmlns="http://www.w3.org/2000/svg" id="Layer_1" width="816" height="11in" viewBox="0 0 612 792"><path d="M190.7 215v171H19.6V215h171.1m6-6H13.6v183h183.1V209z"/><path d="M32.7 288h45.1c16.3 0 24.7 10.4 24.7 21.8s-6.7 18-14.8 19.6c9.1 1.5 16.4 10.3 16.4 21.1 0 12.8-8.6 23.1-24.9 23.1H32.7zm41.1 34.4c6.2 0 10-4 10-9.5s-3.8-9.4-10-9.4H51v18.9zm.7 35.7c6.9 0 11-4 11-10.2s-3.8-10-11-10H51v20.2zm43-46.5h16.3v8.5c4.3-5.5 12-9.9 19.8-9.9v15.9a18.7 18.7 0 0 0-4.5-.5c-5.4 0-12.6 3.1-15.3 7.1v40.9h-16.3zm47.5-82.4a5.3 5.3 0 0 0 3.7 1.5c1.6 0 2.5-.7 2.5-1.7s-.8-1.5-2.7-1.5h-1.6V225h1.6c1.5 0 2.5-.5 2.5-1.4s-1.1-1.6-2.5-1.6a4.9 4.9 0 0 0-3.4 1.4l-1.4-1.8a6.7 6.7 0 0 1 5.1-2.1c3.1 0 5 1.4 5 3.6a3.1 3.1 0 0 1-2.9 3 3.3 3.3 0 0 1 3.1 3.2c0 2.3-2 3.9-5.2 3.9a6.5 6.5 0 0 1-5.2-2.1zm12.4.1a4.8 4.8 0 0 0 3.5 1.4c1.6 0 2.5-.9 2.5-2s-.9-2-2.4-2a4.1 4.1 0 0 0-2.8 1.1l-2-.5v-7.6h9.1v2.4H179v3.3a4.7 4.7 0 0 1 3-1.1 4.1 4.1 0 0 1 4.2 4.3c0 2.8-2.1 4.6-5.3 4.6a6.7 6.7 0 0 1-5.1-2zm196.8 169.2v171H203.1v-171h171.1m6-6H197.1v183h183.1v-183z"/><path d="M216.2 471.5h45.1c16.3 0 24.7 10.4 24.7 21.8s-6.7 18-14.8 19.6c9.1 1.5 16.4 10.3 16.4 21.1 0 12.8-8.6 23.1-24.9 23.1h-46.5zm41.1 34.4c6.2 0 10-4 10-9.5s-3.8-9.4-10-9.4h-22.8v18.9zm.7 35.7c6.9 0 11-4 11-10.2s-3.8-10-11-10h-23.5v20.2zm43-46.5h16.3v8.5c4.3-5.5 12.1-9.9 19.8-9.9v15.9a25.6 25.6 0 0 0-4.5-.5c-5.4 0-12.6 3.1-15.3 7.1v40.9H301zm47.5-82.4a5.3 5.3 0 0 0 3.7 1.5c1.6 0 2.5-.7 2.5-1.7s-.8-1.5-2.7-1.5h-1.6v-2.5h1.6c1.5 0 2.5-.5 2.5-1.4s-1.1-1.6-2.5-1.6a4.9 4.9 0 0 0-3.4 1.4l-1.4-1.8a6.7 6.7 0 0 1 5.1-2.1c3.1 0 5 1.4 5 3.6a3.1 3.1 0 0 1-2.9 3 3.3 3.3 0 0 1 3.1 3.2c0 2.3-2 3.9-5.2 3.9a6.5 6.5 0 0 1-5.2-2.1zm12.4.1a4.8 4.8 0 0 0 3.5 1.4c1.6 0 2.5-.9 2.5-2s-.9-2-2.4-2a4.1 4.1 0 0 0-2.8 1.1l-2-.5v-7.6h9.1v2.4h-6.3v3.3a4.7 4.7 0 0 1 3-1.1 4.1 4.1 0 0 1 4.2 4.3c0 2.8-2.1 4.6-5.3 4.6a6.7 6.7 0 0 1-5.1-2zM239.3 309.7c18.5 0 31.1 13.9 31.1 34.2v3.6h-46.1c1 7.8 7.3 14.3 17.8 14.3 5.8 0 12.6-2.3 16.6-6.1l7.2 10.5c-6.2 5.6-16 8.6-25.6 8.6-18.9 0-33.1-12.7-33.1-32.6 0-18 13.2-32.5 32.1-32.5zM224 336.4h30.6c-.4-5.9-4.5-13.7-15.3-13.7s-14.5 7.5-15.3 13.7zm95.4 30.4c-4.2 5-11.6 8-19.6 8-9.9 0-21.6-6.7-21.6-20.5s11.7-19.8 21.6-19.8c8.2 0 15.5 2.6 19.6 7.6v-8.6c0-6.3-5.4-10.4-13.6-10.4a25.8 25.8 0 0 0-18.1 7.3l-6.2-10.9a40.8 40.8 0 0 1 27.1-9.8c14.1 0 27.1 5.7 27.1 23.5v40.1h-16.3zm0-16.1c-2.7-3.6-7.8-5.4-13.1-5.4s-11.7 3.3-11.7 9.3 5.3 9.2 11.7 9.2 10.4-1.8 13.1-5.4zm56.2-1.3l-7.4 7.9v16h-16.3v-85.7h16.3v51.3l23.5-27.7h20l-24.5 28.2 25.3 33.9h-20.4zm43.3-57a9.8 9.8 0 1 1 19.5 0 9.8 9.8 0 0 1-19.5 0zm1.7 18.8h16.3v62.1h-16.3zm74.3 24.6c0-8.6-4.5-11.6-11.4-11.6a17.7 17.7 0 0 0-14.2 7.3v41.8H453v-62.1h16.3v8.1a28.7 28.7 0 0 1 21.7-9.6c13.7 0 20.2 7.7 20.2 19.8v43.8h-16.3zm38.5 41.6c5 5.5 11.6 7.7 19.4 7.7s17.1-3.5 17.1-15.7v-6.3c-4.9 6.2-11.6 9.8-19.2 9.8-15.5 0-27.3-10.9-27.3-31.6s11.7-31.6 27.3-31.6a23.9 23.9 0 0 1 19.2 9.5v-8h16.4V369c0 23.6-18.2 29.4-33.5 29.4-10.7 0-18.9-2.4-26.7-9.2zm36.5-46.1c-2.7-4.1-8.6-7.1-14-7.1-9.3 0-15.7 6.4-15.7 17.1s6.4 17.1 15.7 17.1c5.4 0 11.3-3.1 14-7.1zM421.1 492.2c18.5 0 31.1 13.9 31.1 34.2v3.6h-46.1c1 7.8 7.3 14.4 17.8 14.4 5.8 0 12.6-2.4 16.6-6.2l7.2 10.5c-6.2 5.7-16 8.6-25.6 8.6-18.9 0-33.1-12.7-33.1-32.6 0-18 13.2-32.5 32.1-32.5zm-15.3 26.7h30.6c-.4-5.9-4.5-13.7-15.3-13.7s-14.5 7.6-15.3 13.7zm95.4 30.5c-4.2 5-11.6 7.9-19.6 7.9-9.9 0-21.6-6.7-21.6-20.5s11.7-19.8 21.6-19.8c8.2 0 15.5 2.6 19.6 7.6V516c0-6.3-5.4-10.4-13.6-10.4a26 26 0 0 0-18.1 7.3l-6.2-10.9a40.8 40.8 0 0 1 27.1-9.8c14.1 0 27.1 5.7 27.1 23.5v40.1h-16.3zm0-16.2c-2.7-3.6-7.8-5.4-13.1-5.4s-11.7 3.3-11.7 9.4 5.3 9.1 11.7 9.1 10.4-1.8 13.1-5.4zm75.1 14.6a24 24 0 0 1-19.1 9.5c-15.7 0-27.5-11.8-27.5-32.5s11.7-32.6 27.5-32.6a23.9 23.9 0 0 1 19.1 9.5v-31.6h16.4v85.7h-16.4zm0-34c-2.7-4.1-8.6-7.1-14.1-7.1-9.3 0-15.7 7.4-15.7 18.1s6.4 18 15.7 18c5.5 0 11.4-2.9 14.1-7.1z"/></svg>