<svg xmlns="http://www.w3.org/2000/svg" id="Layer_1" width="816" height="11in" viewBox="0 0 612 792"><path d="M330.6 134.4v283.9H46.7V134.4h283.9m8-8H38.7v299.9h299.9V126.4z"/><path d="M70 255.8h73.9c26.7 0 40.3 17 40.3 35.7S173.3 321 160 323.7c15 2.3 27 16.8 27 34.5 0 21-14.1 37.9-40.8 37.9H70zm67.3 56.4c10.1 0 16.4-6.6 16.4-15.6s-6.3-15.4-16.4-15.4H99.9v31zm1.1 58.4c11.3 0 18.1-6.5 18.1-16.6s-6.3-16.4-18.1-16.4H99.9v33zm70.4-76.1h26.7v13.9c7.2-9.1 19.8-16.2 32.4-16.2v26.1a29 29 0 0 0-7.3-.9c-8.9 0-20.7 5.1-25.1 11.6v67.1h-26.7zm77.9-134.9a8.9 8.9 0 0 0 6 2.4c2.7 0 4.1-1.1 4.1-2.8s-1.3-2.5-4.3-2.5h-2.7v-4h2.7c2.4 0 4-.8 4-2.4s-1.8-2.6-4.1-2.6a7.6 7.6 0 0 0-5.5 2.3l-2.3-2.9a10.7 10.7 0 0 1 8.3-3.5c5.1 0 8.2 2.3 8.2 5.9a5.3 5.3 0 0 1-4.7 5 5.3 5.3 0 0 1 5 5.2c0 3.7-3.3 6.4-8.5 6.4a11.1 11.1 0 0 1-8.6-3.5zm20.2.1a8 8 0 0 0 5.8 2.3c2.6 0 4-1.4 4-3.2s-1.4-3.3-3.9-3.3a5.9 5.9 0 0 0-4.5 1.8l-3.2-.9V144H320v3.9h-10.4v5.5a7.5 7.5 0 0 1 4.9-1.8 6.7 6.7 0 0 1 6.9 7c0 4.6-3.4 7.5-8.7 7.5a10.8 10.8 0 0 1-8.3-3.3zm258.4 209.4v283.8H281.4V369.1h283.9m8-8H273.4v299.8h299.9V361.1z"/><path d="M304.7 490.5h73.8c26.7 0 40.4 17 40.4 35.7s-10.9 29.5-24.2 32.2c15 2.3 27 16.8 27 34.5 0 21-14.1 37.9-40.8 37.9h-76.2zm67.3 56.4c10.1 0 16.4-6.6 16.4-15.6s-6.3-15.4-16.4-15.4h-37.4v31zm1.1 58.4c11.3 0 18.1-6.5 18.1-16.6s-6.3-16.4-18.1-16.4h-38.5v33zm70.4-76.1h26.7v13.9c7.2-9.1 19.8-16.2 32.4-16.2v26a35.5 35.5 0 0 0-7.4-.8c-8.8 0-20.6 5.1-25 11.6v67.1h-26.7zm77.9-134.9a8.9 8.9 0 0 0 6 2.4c2.6 0 4.1-1.1 4.1-2.8s-1.3-2.5-4.4-2.5h-2.7v-4h2.7c2.5 0 4.1-.8 4.1-2.4s-1.8-2.6-4.1-2.6a7.6 7.6 0 0 0-5.5 2.3l-2.3-2.9a10.7 10.7 0 0 1 8.3-3.5c5.1 0 8.2 2.3 8.2 5.9a5.3 5.3 0 0 1-4.7 5 5.3 5.3 0 0 1 5 5.2c0 3.7-3.3 6.4-8.5 6.4a11.1 11.1 0 0 1-8.6-3.5zm20.2.1a8 8 0 0 0 5.8 2.3c2.6 0 4-1.4 4-3.2s-1.4-3.3-3.9-3.3a6.2 6.2 0 0 0-4.5 1.7l-3.3-.8v-12.4h15v3.9h-10.4v5.5a7.5 7.5 0 0 1 4.9-1.9 6.8 6.8 0 0 1 6.9 7.1c0 4.6-3.4 7.5-8.7 7.5a10.8 10.8 0 0 1-8.3-3.3z"/></svg>