<svg id="Layer_1" data-name="Layer 1" xmlns="http://www.w3.org/2000/svg" width="4.6in" height="2.8in" viewBox="0 0 332.3 202"><title>logo for bread website</title><path d="M198,296v99H89V296H198m1-1H88V396H199V295Z" transform="translate(-88 -295)"/><path d="M143.2,331.8a12.3,12.3,0,0,1,2.2,7.2,10.8,10.8,0,0,1-2.2,7,12.2,12.2,0,0,1-3.7,2.7,10.4,10.4,0,0,1,5.5,4.2,12,12,0,0,1,1.9,7,14.3,14.3,0,0,1-2.1,7.6,15,15,0,0,1-3.4,3.7,12.1,12.1,0,0,1-5.4,2.4,34.8,34.8,0,0,1-6.7.6H107.9V326.7h23Q139.6,326.9,143.2,331.8ZM117.4,335v10.4h11.5a10.7,10.7,0,0,0,5.1-1.1,4.7,4.7,0,0,0,1.9-4.2c0-2.2-.9-3.7-2.6-4.4a17.4,17.4,0,0,0-5.6-.7Zm0,18.3V366h11.5a10.2,10.2,0,0,0,4.8-.9c2.1-1,3.2-3,3.2-5.9a5.1,5.1,0,0,0-3.1-5.1,11.7,11.7,0,0,0-4.7-.8Z" transform="translate(-88 -295)"/><path d="M174.2,338.3h.8v9.4h-2.6q-5.6,0-7.5,3.6a13.7,13.7,0,0,0-1.1,6.2v16.8h-9.2V339.1h8.8v6.1a19.5,19.5,0,0,1,3.7-4.8,10.2,10.2,0,0,1,6.7-2.2Z" transform="translate(-88 -295)"/><path d="M183.3,306.3a1.9,1.9,0,0,0,.1.8,1.1,1.1,0,0,0,1.1.6,1.4,1.4,0,0,0,.9-.3,1.3,1.3,0,0,0,.3-1,1.1,1.1,0,0,0-.6-1.1h-1.2V304l1.1-.2c.4-.2.5-.5.5-1a1.9,1.9,0,0,0-.2-.8,1.1,1.1,0,0,0-.8-.3,1,1,0,0,0-.9.4,1.5,1.5,0,0,0-.3,1h-1.5a5,5,0,0,1,.2-1.2,2.4,2.4,0,0,1,.6-.9l.8-.5h1.1a3.2,3.2,0,0,1,2,.6,2.1,2.1,0,0,1,.7,1.7,1.6,1.6,0,0,1-.4,1.2,1.3,1.3,0,0,1-.6.5.9.9,0,0,1,.6.4,1.9,1.9,0,0,1,.7,1.6,2.8,2.8,0,0,1-3,2.7,2.7,2.7,0,0,1-2.5-1.2,3.4,3.4,0,0,1-.4-1.6Z" transform="translate(-88 -295)"/><path d="M190,306.6a1.1,1.1,0,0,0,1.2,1.2,1.1,1.1,0,0,0,.9-.5,1.8,1.8,0,0,0,.3-1.1,2,2,0,0,0-.3-1.1,1,1,0,0,0-.9-.4h-.6a1,1,0,0,0-.5.6h-1.5l.6-4.7h4.6v1.4h-3.4l-.3,1.9.6-.4h.8a3.2,3.2,0,0,1,1.9.7,2.9,2.9,0,0,1,.8,2.1,3.2,3.2,0,0,1-.8,2.1,3.4,3.4,0,0,1-4.2.3,2.3,2.3,0,0,1-.9-1.9Z" transform="translate(-88 -295)"/><path d="M309,397v99H200V397H309m1-1H199V497H310V396Z" transform="translate(-88 -295)"/><path d="M254.2,432.8a12.3,12.3,0,0,1,2.2,7.2,10.8,10.8,0,0,1-2.2,7,12.2,12.2,0,0,1-3.7,2.7,10.4,10.4,0,0,1,5.5,4.2,12,12,0,0,1,1.9,7,14.3,14.3,0,0,1-2.1,7.6,15,15,0,0,1-3.4,3.7,12.1,12.1,0,0,1-5.4,2.4,34.8,34.8,0,0,1-6.7.6H218.9V427.7h23Q250.6,427.9,254.2,432.8ZM228.4,436v10.4h11.5a10.7,10.7,0,0,0,5.1-1.1,4.7,4.7,0,0,0,1.9-4.2c0-2.2-.9-3.7-2.6-4.4a17.4,17.4,0,0,0-5.6-.7Zm0,18.3V467h11.5a10.2,10.2,0,0,0,4.8-.9c2.1-1,3.2-3,3.2-5.9a5.1,5.1,0,0,0-3.1-5.1,11.7,11.7,0,0,0-4.7-.8Z" transform="translate(-88 -295)"/><path d="M285.2,439.3h.8v9.4h-2.6q-5.5,0-7.5,3.6a13.7,13.7,0,0,0-1.1,6.2v16.8h-9.2V440.1h8.8v6.1a19.5,19.5,0,0,1,3.7-4.8,10.2,10.2,0,0,1,6.7-2.2Z" transform="translate(-88 -295)"/><path d="M294.3,407.3a1.9,1.9,0,0,0,.1.8,1.1,1.1,0,0,0,1.1.6,1.4,1.4,0,0,0,.9-.3,1.3,1.3,0,0,0,.3-1,1.1,1.1,0,0,0-.6-1.1h-1.2V405l1.1-.2c.4-.2.5-.5.5-1a1.9,1.9,0,0,0-.2-.8,1.1,1.1,0,0,0-.8-.3,1,1,0,0,0-.9.4,1.5,1.5,0,0,0-.3,1h-1.5a5,5,0,0,1,.2-1.2,2.4,2.4,0,0,1,.6-.9l.8-.5h1.1a3.2,3.2,0,0,1,2,.6,2.1,2.1,0,0,1,.7,1.7,1.6,1.6,0,0,1-.4,1.2,1.3,1.3,0,0,1-.6.5.9.9,0,0,1,.6.4,1.9,1.9,0,0,1,.7,1.6,2.8,2.8,0,0,1-3,2.7,2.7,2.7,0,0,1-2.5-1.2,3.4,3.4,0,0,1-.4-1.6Z" transform="translate(-88 -295)"/><path d="M301,407.6a1.1,1.1,0,0,0,1.2,1.2,1.1,1.1,0,0,0,.9-.5,1.8,1.8,0,0,0,.3-1.1,2,2,0,0,0-.3-1.1,1,1,0,0,0-.9-.4h-.6a1,1,0,0,0-.5.6h-1.5l.6-4.7h4.6v1.4h-3.4l-.3,1.9.6-.4h.8a3.2,3.2,0,0,1,1.9.7,2.9,2.9,0,0,1,.8,2.1,3.2,3.2,0,0,1-.8,2.1,3.4,3.4,0,0,1-4.2.3,2.3,2.3,0,0,1-.9-1.9Z" transform="translate(-88 -295)"/><path d="M229.6,341.5a14.6,14.6,0,0,1,6.1,5.2,16.6,16.6,0,0,1,2.8,7.3,35.4,35.4,0,0,1,.3,7H213.1c.2,3.6,1.4,6.1,3.7,7.5a9.2,9.2,0,0,0,5.1,1.3,7.6,7.6,0,0,0,5.1-1.6,6.5,6.5,0,0,0,1.9-2.4h9.5a11.2,11.2,0,0,1-3.5,6.3c-3.1,3.5-7.6,5.2-13.2,5.2a19.5,19.5,0,0,1-12.5-4.4c-3.6-2.8-5.3-7.6-5.3-14.1s1.6-10.8,4.8-14a17,17,0,0,1,12.6-4.9A19.8,19.8,0,0,1,229.6,341.5Zm-13.8,8a9.3,9.3,0,0,0-2.4,5.5h15.9a7.8,7.8,0,0,0-2.5-5.6,8,8,0,0,0-5.5-1.9A7.6,7.6,0,0,0,215.8,349.5Z" transform="translate(-88 -295)"/><path d="M257.5,354.6a16.2,16.2,0,0,0,3.7-.8,2.6,2.6,0,0,0,1.9-2.6,3.2,3.2,0,0,0-1.5-3,10.3,10.3,0,0,0-4.5-.8c-2.2,0-3.7.5-4.7,1.6a8.6,8.6,0,0,0-1.3,3.2h-8.9a14.1,14.1,0,0,1,2.6-7.6c2.5-3.1,6.7-4.6,12.6-4.6a21.8,21.8,0,0,1,10.4,2.3c3,1.5,4.5,4.4,4.5,8.6v16.2c0,1.1,0,2.5.1,4.1a4.9,4.9,0,0,0,.5,2.5,3,3,0,0,0,1.4,1v1.4H264.2a19.4,19.4,0,0,1-.5-2c-.1-.6-.2-1.4-.3-2.2a21.7,21.7,0,0,1-4.4,3.6,14,14,0,0,1-6.8,1.7,11.9,11.9,0,0,1-8-2.7c-2.1-1.9-3.1-4.4-3.1-7.8s1.7-7.5,5.1-9.4c1.8-1.1,4.5-1.8,8.1-2.3Zm5.6,4.3a7.6,7.6,0,0,1-1.8.9,9.6,9.6,0,0,1-2.5.7l-2.1.3a16.1,16.1,0,0,0-4.2,1.3,4.4,4.4,0,0,0-2.2,3.9,4,4,0,0,0,1.4,3.4,4.8,4.8,0,0,0,3.2,1.1,9.6,9.6,0,0,0,5.6-1.8c1.7-1.1,2.5-3.2,2.6-6.3Z" transform="translate(-88 -295)"/><path d="M280.3,328.6h9v25.7L301,341h11.4l-12.6,13.1,13.1,22H301.7L293.1,361l-3.8,4v11.1h-9Z" transform="translate(-88 -295)"/><path d="M326.7,336.6h-9.3v-8.5h9.3Zm-9.3,4.2h9.3v35.3h-9.3Z" transform="translate(-88 -295)"/><path d="M364.1,342.8c2.3,1.9,3.4,5.1,3.4,9.5v23.8h-9.4V354.6a9.6,9.6,0,0,0-.7-4.2c-.9-1.8-2.7-2.8-5.2-2.8a6.5,6.5,0,0,0-6.4,4,13.8,13.8,0,0,0-.9,5.4v19.1h-9.2V340.9h8.9V346a15.2,15.2,0,0,1,3.4-3.9,11.8,11.8,0,0,1,7.2-2.1A13.6,13.6,0,0,1,364.1,342.8Z" transform="translate(-88 -295)"/><path d="M393.6,340.8a11,11,0,0,1,5.4,5.1v-5.1h9v33.5c0,4.5-.8,8-2.3,10.3-2.6,3.9-7.7,5.9-15.1,5.9a21.4,21.4,0,0,1-11.1-2.6,9.9,9.9,0,0,1-4.7-8h10a4.6,4.6,0,0,0,1.3,2.4c1,.8,2.7,1.2,5,1.2s5.6-1.1,6.7-3.3,1.1-3.8,1.1-7.2v-2.2a12.6,12.6,0,0,1-2.9,3.4,11.3,11.3,0,0,1-7.1,2.1,13.5,13.5,0,0,1-10.9-4.8c-2.7-3.2-4-7.5-4-12.9a22,22,0,0,1,3.9-13.3A13,13,0,0,1,389,340,11.1,11.1,0,0,1,393.6,340.8Zm3.1,25.3c1.5-1.7,2.2-4.2,2.2-7.8s-.7-5.9-2.1-7.6a6.8,6.8,0,0,0-5.6-2.7,6.7,6.7,0,0,0-6.7,4.6,17.1,17.1,0,0,0-1,6,13.8,13.8,0,0,0,1.1,5.5,6.7,6.7,0,0,0,6.7,4.4A7.1,7.1,0,0,0,396.7,366.1Z" transform="translate(-88 -295)"/><path d="M338.5,443.7a14.3,14.3,0,0,1,6.1,5.1,17.4,17.4,0,0,1,2.7,7.2,34.5,34.5,0,0,1,.3,7H322.3c.1,3.4,1.3,5.9,3.6,7.3a9.1,9.1,0,0,0,5,1.3A7.6,7.6,0,0,0,336,470a9.6,9.6,0,0,0,1.9-2.4h9.3a11.6,11.6,0,0,1-3.4,6.3c-3.1,3.4-7.5,5.1-13.1,5.1a18.6,18.6,0,0,1-12.3-4.3c-3.5-2.8-5.3-7.5-5.3-13.9s1.6-10.7,4.8-13.9a16.7,16.7,0,0,1,12.4-4.8A19.4,19.4,0,0,1,338.5,443.7Zm-13.6,7.9a9,9,0,0,0-2.4,5.3h15.7a7.7,7.7,0,0,0-2.5-5.5,8,8,0,0,0-5.4-1.8A6.9,6.9,0,0,0,324.9,451.6Z" transform="translate(-88 -295)"/><path d="M366,456.6a16.2,16.2,0,0,0,3.7-.8,2.6,2.6,0,0,0,1.9-2.6,3,3,0,0,0-1.5-2.9,8.6,8.6,0,0,0-4.4-.8c-2.2,0-3.7.5-4.6,1.6a5.9,5.9,0,0,0-1.3,3.2H351a13.1,13.1,0,0,1,2.6-7.6c2.4-3,6.5-4.6,12.4-4.6a22.5,22.5,0,0,1,10.2,2.3c3,1.5,4.5,4.4,4.5,8.6v20a5.1,5.1,0,0,0,.6,2.4,3.6,3.6,0,0,0,1.3,1.1v1.3h-9.9a15.2,15.2,0,0,1-.6-2c-.1-.6-.1-1.3-.2-2.1a16.6,16.6,0,0,1-4.4,3.5,13.3,13.3,0,0,1-6.7,1.7,11.4,11.4,0,0,1-7.8-2.7c-2.1-1.8-3.1-4.3-3.1-7.7s1.6-7.3,5-9.3a24.3,24.3,0,0,1,8-2.2Zm5.6,4.3-1.8.9-2.4.6-2.1.4a13.4,13.4,0,0,0-4.2,1.2,4.1,4.1,0,0,0-2.1,3.9,3.8,3.8,0,0,0,1.3,3.3,5,5,0,0,0,3.2,1.1,9.9,9.9,0,0,0,5.5-1.7c1.7-1.2,2.5-3.3,2.6-6.3Z" transform="translate(-88 -295)"/><path d="M407.1,443.5a10.7,10.7,0,0,1,4,3.9V430.8h9.2v47h-8.8V473a12.7,12.7,0,0,1-4.4,4.5,13.2,13.2,0,0,1-6.2,1.4,12.9,12.9,0,0,1-10.3-4.9c-2.8-3.3-4.2-7.6-4.2-12.7s1.4-10.6,4.1-14a13.6,13.6,0,0,1,11-5.2A11.3,11.3,0,0,1,407.1,443.5Zm2.3,24.9a13.3,13.3,0,0,0,2-7.5c0-4.3-1.1-7.3-3.3-9.1a6.9,6.9,0,0,0-4.6-1.7,6.3,6.3,0,0,0-5.8,3,16.1,16.1,0,0,0,0,15.2,6.4,6.4,0,0,0,5.8,2.9A6.8,6.8,0,0,0,409.4,468.4Z" transform="translate(-88 -295)"/></svg>